<svg xmlns="http://www.w3.org/2000/svg" width="27" height="27" viewBox="0 0 27 27">
  <path id="Subtraction_1" data-name="Subtraction 1" d="M-10.5,78a13.412,13.412,0,0,1-9.546-3.954A13.412,13.412,0,0,1-24,64.5a13.412,13.412,0,0,1,3.954-9.546A13.412,13.412,0,0,1-10.5,51,13.412,13.412,0,0,1-.954,54.954,13.412,13.412,0,0,1,3,64.5,13.412,13.412,0,0,1-.954,74.046,13.412,13.412,0,0,1-10.5,78Zm1.123-20.238a6.077,6.077,0,0,0-3.74,1.089A3.326,3.326,0,0,0-14.563,61.6a3.043,3.043,0,0,0,2.5,3.038V64.7a4.119,4.119,0,0,0-2.2,1.3,3.348,3.348,0,0,0-.791,2.212,3.479,3.479,0,0,0,1.48,2.925,6.683,6.683,0,0,0,4.047,1.1,9.228,9.228,0,0,0,3.672-.7V69.383a7.628,7.628,0,0,1-3.515.82,4.25,4.25,0,0,1-2.363-.576,1.818,1.818,0,0,1-.869-1.591c0-1.471,1.308-2.217,3.887-2.217h1V63.826h-.967a4.715,4.715,0,0,1-2.52-.59,1.74,1.74,0,0,1-.938-1.49,1.643,1.643,0,0,1,.772-1.417,3.59,3.59,0,0,1,2.05-.527,6.828,6.828,0,0,1,3.164.762V58.406A7.859,7.859,0,0,0-9.377,57.762Z" transform="translate(24 -51)" fill="#31917d"/>
</svg>
