<svg xmlns="http://www.w3.org/2000/svg" width="374.244" height="208.409" viewBox="0 0 374.244 208.409">
  <g id="Group_9" data-name="Group 9" opacity="0.898">
    <path id="Path_1" data-name="Path 1" d="M402.243,281.2a59.067,59.067,0,0,1-8.545,30.711c0,11.325-5.28,21.591-13.844,29.073a47.349,47.349,0,0,1-6.9,5c-.1.062-.2.121-.3.18l-.553.327-.173.1h0c-.782.442-1.58.867-2.395,1.266a54.2,54.2,0,0,1-24.13,5.561H99.044q-2.944,0-5.836-.236a69.076,69.076,0,0,1-19.975-4.626q-1.871-.739-3.67-1.59-.857-.4-1.7-.828c-.35-.177-.7-.36-1.047-.543a62.312,62.312,0,0,1-6.1-3.71,60.15,60.15,0,0,1-5.169-3.965c-11.132-9.552-18.019-22.772-18.019-37.359A59.048,59.048,0,0,1,28,268.283c0-32.432,25.922-58.724,57.9-58.724.981,0,1.963.029,2.944.082a2.988,2.988,0,0,1,.419.02,99.765,99.765,0,0,1,21.264-25.065c23.632-20.25,58.171-33.015,96.646-33.015,32.328,0,61.878,9.013,84.512,23.9a56.98,56.98,0,0,1,28.117-7.377c31.974,0,57.9,26.292,57.9,58.724a60.511,60.511,0,0,1-.327,6.144A58.884,58.884,0,0,1,402.243,281.2Z" transform="translate(-28 -145.011)" fill="#6c63ff" opacity="0.1"/>
    <path id="Path_2" data-name="Path 2" d="M496.867,326.771v-3.51a12.775,12.775,0,1,0-9.611,0v3.51a17.992,17.992,0,0,0-8.355,5.081,18.02,18.02,0,0,0-10.167-7.367v-3.513a12.775,12.775,0,1,0-9.611,0v3.51a17.991,17.991,0,0,0-7.593,4.305,18.019,18.019,0,0,0-9.621-6.6v-3.51a12.775,12.775,0,1,0-9.611,0v3.51a17.993,17.993,0,0,0-8.505,5.254,18.022,18.022,0,0,0-11.963-10.815v-3.51a12.775,12.775,0,1,0-9.611,0v3.51a17.993,17.993,0,0,0-13.086,15.627,17.864,17.864,0,0,0-5.421-2.542V326.2a12.775,12.775,0,1,0-9.611,0v3.51a18.051,18.051,0,0,0-11.339,9.389,17.857,17.857,0,0,0-4.907-2.192V333.4a12.775,12.775,0,1,0-9.611,0v3.51a17.762,17.762,0,0,0-4.649,2.035,18.038,18.038,0,0,0-11.257-9.232V326.2a12.775,12.775,0,1,0-9.611,0v3.51a18.025,18.025,0,0,0-11.734,10.259,18,18,0,0,0-6.134-3.062V333.4a12.775,12.775,0,1,0-9.611,0v3.51A17.992,17.992,0,0,0,282.06,354.25v81.13h35.965v-7.2h17.011v7.2h35.985v-7.2h25.844V415.1H419.11v5.561h26.825v2.29h28.134v2.29h35.985v-81.13a17.992,17.992,0,0,0-13.186-17.338Z" transform="translate(-198.948 -237.145)" fill="#6c63ff" opacity="0.1"/>
    <path id="Path_3" data-name="Path 3" d="M376.2,169h29.91a55.706,55.706,0,0,1,55.708,55.708v75.474H320.5V224.7A55.7,55.7,0,0,1,376.2,169Z" transform="translate(-215.653 -113.714)" fill="#2f2e41"/>
    <path id="Path_4" data-name="Path 4" d="M386.2,178.28h23.367a55.705,55.705,0,0,1,55.708,55.708v69.4H330.5v-69.4a55.7,55.7,0,0,1,55.7-55.7Z" transform="translate(-222.381 -119.958)" opacity="0.2"/>
    <path id="Path_5" data-name="Path 5" d="M436.816,682.219v5.712a54.2,54.2,0,0,1-24.13,5.561H166.331q-2.944,0-5.836-.235a69.078,69.078,0,0,1-19.975-4.626q-1.871-.739-3.671-1.59-.857-.4-1.7-.828c-.35-.177-.7-.36-1.047-.543a62.305,62.305,0,0,1-6.1-3.7V666.454A9.454,9.454,0,0,1,137.454,657H409.379a9.454,9.454,0,0,1,6.216,2.346l17.992,15.768A9.443,9.443,0,0,1,436.816,682.219Z" transform="translate(-95.286 -485.09)" fill="#2f2e41"/>
    <path id="Path_6" data-name="Path 6" d="M355.892,351.435q-10.7.707-21.319,2.29a20.191,20.191,0,0,0-5.888,1.524,17.274,17.274,0,0,0-3.906,2.8,51.484,51.484,0,0,0-12.431,16.857c-1.822,3.975-3.131,8.178-4.848,12.186-6.114,14.312-17.2,26.017-23.658,40.179a35.14,35.14,0,0,0-3.042,9.6c-.484,3.448.065,7.472,2.9,9.487a11.714,11.714,0,0,0,4.456,1.636,536.993,536.993,0,0,0,59.4,9.7c-2.162-2.087-2.885-5.323-2.6-8.313a30.033,30.033,0,0,1,2.617-8.587q-16.949-3.739-33.813-7.851c-1.678-.409-3.693-1.178-3.9-2.892a4.274,4.274,0,0,1,.752-2.483,133.2,133.2,0,0,1,17.142-24.208c0,9.179-.455,19.546-.455,28.729H433.318a81.131,81.131,0,0,1-2.238-15.981c-.494-17.587,5.427-35.04,3.89-52.59a10.657,10.657,0,0,0-1.214-4.675c-1.462-2.395-4.38-3.386-7.063-4.2-10.285-3.127-20.786-6.291-31.536-6.046-3.2.075-6.379.448-9.556.824C375.922,350.559,365.618,350.791,355.892,351.435Z" transform="translate(-197.993 -277.565)" fill="#6c63ff"/>
    <path id="Path_7" data-name="Path 7" d="M358.809,672.54l7.72,24.709a.772.772,0,0,0,.736.54h33.129L392.543,669l-33.06,2.542a.772.772,0,0,0-.674,1Z" transform="translate(-250.566 -493.164)" fill="#656478"/>
    <path id="Path_8" data-name="Path 8" d="M483.689,363.614a14.321,14.321,0,0,1-4.753,1.41l-10.557,1.832c-2.054.357-4.217.762-5.8,2.12-3.239,2.771-2.539,7.871-1.557,12.019l1.963,8.322c1.479,6.255,2.99,12.585,6.022,18.251,5.3,9.889,15.012,17.011,25.7,20.443A28.732,28.732,0,0,0,506.54,429.6c7.805-.857,14.482-6.422,18.6-13.112s6.075-14.45,7.871-22.1c1.724-7.321,3.363-14.747,3.252-22.271a12.935,12.935,0,0,0-1.518-6.775c-2.738-4.361-8.944-4.688-14.031-3.883a5.206,5.206,0,0,1-2.375.026c-2.29-.713-2.342-3.857-3.324-6.039-1.855-4.115-7.357-4.845-11.855-4.472s-11.5.854-15.421,3.4C483.967,356.813,488.109,361.066,483.689,363.614Z" transform="translate(-318.812 -279.118)" fill="#fbbebe"/>
    <path id="Path_9" data-name="Path 9" d="M483.689,363.614a14.321,14.321,0,0,1-4.753,1.41l-10.557,1.832c-2.054.357-4.217.762-5.8,2.12-3.239,2.771-2.539,7.871-1.557,12.019l1.963,8.322c1.479,6.255,2.99,12.585,6.022,18.251,5.3,9.889,15.012,17.011,25.7,20.443A28.732,28.732,0,0,0,506.54,429.6c7.805-.857,14.482-6.422,18.6-13.112s6.075-14.45,7.871-22.1c1.724-7.321,3.363-14.747,3.252-22.271a12.935,12.935,0,0,0-1.518-6.775c-2.738-4.361-8.944-4.688-14.031-3.883a5.206,5.206,0,0,1-2.375.026c-2.29-.713-2.342-3.857-3.324-6.039-1.855-4.115-7.357-4.845-11.855-4.472s-11.5.854-15.421,3.4C483.967,356.813,488.109,361.066,483.689,363.614Z" transform="translate(-318.812 -279.118)" opacity="0.1"/>
    <path id="Path_10" data-name="Path 10" d="M463.364,398.341c1.6,3.35,2.794,6.9,4.724,10.073a49.758,49.758,0,0,0,5.457,6.948c5.068,5.731,10.2,11.509,16.471,15.873a72.93,72.93,0,0,1,18.114-35.658c2.7-2.9,6.085-5.761,10.05-5.653a13.319,13.319,0,0,1,6.778,2.646,24.251,24.251,0,0,1,6.1,5.453,22.007,22.007,0,0,1,3.926,12.208,64.781,64.781,0,0,1-1.138,12.945l-3.435,22.151c-.2,1.282-.478,2.7-1.525,3.468a4.8,4.8,0,0,1-1.963.707c-12.487,2.431-25.356.854-38.079.729-14.067-.134-28.523,1.469-41.847-3.006a4.071,4.071,0,0,1-1.891-1.066,3.944,3.944,0,0,1-.654-1.41c-3.1-10.05-.615-20.848,1.227-31.2a244.814,244.814,0,0,0,3.111-24.79c.056-.749,8.286.906,9.206,1.436C460.5,391.674,462.16,395.816,463.364,398.341Z" transform="translate(-307.225 -304.47)" fill="#6c63ff"/>
    <g id="Group_3" data-name="Group 3" transform="translate(35.32 87.59)" opacity="0.2">
      <path id="Path_11" data-name="Path 11" d="M181.608,658.632a3.9,3.9,0,0,1-.033.442q-1.871-.74-3.671-1.59a2.979,2.979,0,0,1-1.7-.828c-.35-.177-.7-.36-1.047-.543a4.493,4.493,0,0,1,.265-.478,3.043,3.043,0,0,1,5.538.17A5.52,5.52,0,0,1,181.608,658.632Z" transform="translate(-162.339 -570.618)" fill="#3f3d56"/>
      <path id="Path_12" data-name="Path 12" d="M181,641.512a5.522,5.522,0,0,1-.821,2.774,3.293,3.293,0,0,1-2.826,1.694l-.232-.016a2.977,2.977,0,0,1-1.7-.828,4.1,4.1,0,0,1-.782-1.021,5.741,5.741,0,0,1,.177-5.6,3.043,3.043,0,0,1,5.538.17A5.518,5.518,0,0,1,181,641.512Z" transform="translate(-161.559 -559.098)" fill="#3f3d56"/>
      <ellipse id="Ellipse_1" data-name="Ellipse 1" cx="4.583" cy="3.5" rx="4.583" ry="3.5" transform="translate(12.48 81.182) rotate(-88.19)" fill="#3f3d56"/>
      <ellipse id="Ellipse_2" data-name="Ellipse 2" cx="4.583" cy="3.5" rx="4.583" ry="3.5" transform="translate(12.659 75.581) rotate(-88.19)" fill="#3f3d56"/>
      <ellipse id="Ellipse_3" data-name="Ellipse 3" cx="4.583" cy="3.5" rx="4.583" ry="3.5" transform="translate(12.834 69.98) rotate(-88.19)" fill="#3f3d56"/>
      <path id="Path_13" data-name="Path 13" d="M140.561,426.008a16.238,16.238,0,0,1-1.243-1.963l9.245-1.22-9.965-.236a16.808,16.808,0,0,1,.1-13.295l13.125,7.341L139.8,407.2a16.776,16.776,0,1,1,27.1,19.628,16.727,16.727,0,0,1,1.816,3.118l-12.127,5.836,12.866-3.87a16.8,16.8,0,0,1-3.206,15.67,16.776,16.776,0,1,1-26.344-.841,16.776,16.776,0,0,1,.654-20.734Z" transform="translate(-135.971 -399.247)" fill="#6c63ff"/>
      <path id="Path_14" data-name="Path 14" d="M170.164,515.06a16.7,16.7,0,0,1-3.926,10.256,16.776,16.776,0,1,1-26.334-.831C137.735,521.56,170.223,513.179,170.164,515.06Z" transform="translate(-135.968 -476.99)" opacity="0.1"/>
    </g>
    <circle id="Ellipse_4" data-name="Ellipse 4" cx="7.076" cy="7.076" r="7.076" transform="translate(15.176 39.109)" fill="#6c63ff" opacity="0.1"/>
    <circle id="Ellipse_5" data-name="Ellipse 5" cx="7.076" cy="7.076" r="7.076" transform="translate(44.667 0)" fill="#6c63ff" opacity="0.1"/>
    <circle id="Ellipse_6" data-name="Ellipse 6" cx="11.859" cy="11.859" r="11.859" transform="translate(37.487 22.085)" fill="#6c63ff" opacity="0.1"/>
    <circle id="Ellipse_7" data-name="Ellipse 7" cx="27.479" cy="27.479" r="27.479" transform="translate(150.156 33.204)" fill="#fbbebe"/>
    <path id="Path_15" data-name="Path 15" d="M462.426,148.339c-7.331.929-15.245,2.156-20.426,7.423-2.9,2.944-4.6,6.87-5.993,10.756-2.166,6.052-3.778,12.431-3.271,18.853.451,5.745,2.578,11.62.857,17.122-.792,2.532-2.345,4.743-3.553,7.1a37.619,37.619,0,0,0-3.677,14.194,24.666,24.666,0,0,0,.893,10.04c1.181,3.4,3.484,6.3,4.943,9.588,2.159,4.861,2.375,10.331,2.542,15.647s.307,10.6.432,15.892c.078,3.33.085,6.9-1.757,9.673,6.8-2.725,13.7-5.506,19.517-9.955s10.531-10.864,11.283-18.153c.608-5.908-1.387-11.731-3.108-17.417-4.253-14.067-7-29.063-3.906-43.427,1.116-5.172,3.828-10.946,9.032-11.9,3.177-.579,6.346.87,9.209,2.368,6.765,3.54,13.74,8.12,16.259,15.326,2.29,6.517.363,13.776-2.617,20s-7.037,11.944-9.353,18.447c-3.556,9.978-2.555,21.66,3.353,30.45s16.825,14.2,27.322,12.778c-.821-3.546-3.4-6.412-4.776-9.781-2.509-6.121-.818-13.161,1.881-19.2s6.382-11.669,8.07-18.081a54.09,54.09,0,0,0,1.328-13.9c0-7.348-.363-14.7-1.07-22.013a99.616,99.616,0,0,0-4.115-21.758,41.163,41.163,0,0,0-8.672-15.428c-4.338-4.609-9.984-7.734-15.529-10.8-3.317-1.825-6.706-3.674-10.429-4.357a56.5,56.5,0,0,0-9.042-1.358A7.648,7.648,0,0,0,462.426,148.339Z" transform="translate(-295.952 -141.577)" fill="#434175"/>
    <rect id="Rectangle_2" data-name="Rectangle 2" width="19.906" height="46.368" rx="2.9" transform="matrix(0.982, 0.19, -0.19, 0.982, 199.582, 38.619)" fill="#656478"/>
    <rect id="Rectangle_3" data-name="Rectangle 3" width="19.906" height="46.368" rx="2.9" transform="matrix(0.982, 0.19, -0.19, 0.982, 200.918, 38.879)" fill="#3f3d56"/>
    <ellipse id="Ellipse_8" data-name="Ellipse 8" cx="3.288" cy="1.358" rx="3.288" ry="1.358" transform="matrix(0.19, -0.982, 0.982, 0.19, 206.798, 53.599)" fill="#6c63ff"/>
    <path id="Path_16" data-name="Path 16" d="M646.693,316.666a8.62,8.62,0,0,0-5.918-5.286,35.567,35.567,0,0,0-9.745-2.4,1.833,1.833,0,0,0-1.528.419c-.733.86.429,2.031,1.433,2.552l7.989,4.138-7.364-.779c-1.07-.114-2.594.177-2.516,1.25.052.7.824,1.086,1.492,1.308,4.727,1.636,10.191,2.918,12.778,7.2-3.448-.327-6.971-.654-10.35.1a4.378,4.378,0,0,0-2.49,1.263,1.828,1.828,0,0,0,.088,2.542,2.569,2.569,0,0,0,1.695.327c2.4-.115,4.858-.592,7.161.092s4.348,3.1,3.553,5.362a12.925,12.925,0,0,0,6.343-.88c2.081-.981,2.032-2.826,1.9-5.051C650.946,324.462,648.783,320.4,646.693,316.666Z" transform="translate(-432.419 -250.912)" fill="#fbbebe"/>
    <path id="Path_17" data-name="Path 17" d="M654.839,428.231a368.017,368.017,0,0,0-7.524-38.249c-1.636-6.543-3.494-13.2-3.026-19.929,6.759.86,12.814,1.5,19.043-1.263.1,3.536,2.666,6.543,3.6,9.961.625,2.29.389,4.714.635,7.073a43.371,43.371,0,0,0,1.613,6.939,85.125,85.125,0,0,1,2.169,34.918C665.566,428.368,660.607,429.124,654.839,428.231Z" transform="translate(-442.629 -291.164)" opacity="0.1"/>
    <path id="Path_18" data-name="Path 18" d="M651.839,428.231a368.118,368.118,0,0,0-7.524-38.249c-1.636-6.543-3.494-13.2-3.026-19.929,6.759.86,12.814,1.5,19.043-1.263.1,3.536,2.666,6.543,3.6,9.961.625,2.29.389,4.714.635,7.073a43.384,43.384,0,0,0,1.613,6.939,85.123,85.123,0,0,1,2.169,34.918C662.566,428.368,657.607,429.124,651.839,428.231Z" transform="translate(-440.611 -291.164)" fill="#6c63ff"/>
    <path id="Path_19" data-name="Path 19" d="M384.622,572.256l3.2-79.452a4.861,4.861,0,0,1,4.907-4.665l126.444,1.21a4.861,4.861,0,0,1,4.793,5.286l-6.68,76.115a4.861,4.861,0,0,1-4.76,4.436l-122.964,2.127a4.865,4.865,0,0,1-4.943-5.057Z" transform="translate(-267.955 -371.47)" fill="#3f3d56"/>
    <ellipse id="Ellipse_9" data-name="Ellipse 9" cx="5.561" cy="6.543" rx="5.561" ry="6.543" transform="translate(181.724 146.23)" fill="#6c63ff"/>
    <path id="Path_20" data-name="Path 20" d="M902.372,584.76,902.11,587l-4.252,36.266c-11.087,7.73-19.71.3-19.785,0l-5.358-36.436-.3-2.074Z" transform="translate(-596.173 -436.482)" fill="#3f3d56"/>
    <path id="Path_21" data-name="Path 21" d="M902.372,584.76,902.11,587c-12.49,7.263-25.814,1.609-29.4-.17l-.3-2.074Z" transform="translate(-596.173 -436.482)" opacity="0.1"/>
    <path id="Path_22" data-name="Path 22" d="M870.5,578.74v3.271s16.52,9.6,31.405,0V578.74Z" transform="translate(-594.888 -432.432)" fill="#6c63ff"/>
    <path id="Path_23" data-name="Path 23" d="M872.42,565.53s-.481,2.208-1.92,2.4v2.784h31.405v-2.5a2.322,2.322,0,0,1-1.636-2.689Z" transform="translate(-594.888 -423.543)" fill="#6c63ff"/>
    <ellipse id="Ellipse_10" data-name="Ellipse 10" cx="14.165" cy="4.083" rx="14.165" ry="4.083" transform="translate(277.055 138.143)" fill="#6c63ff"/>
    <ellipse id="Ellipse_11" data-name="Ellipse 11" cx="14.165" cy="4.083" rx="14.165" ry="4.083" transform="translate(277.055 138.143)" opacity="0.1"/>
    <path id="Path_24" data-name="Path 24" d="M906.839,559.4c0,1.636-5.372,2.977-12,2.977h-.354c-4.452-.033-8.3-.654-10.262-1.583-.887-.419-1.39-.893-1.39-1.394,0-.831,1.374-1.583,3.6-2.123a37.127,37.127,0,0,1,8.417-.854C901.467,556.423,906.839,557.755,906.839,559.4Z" transform="translate(-603.184 -417.413)" opacity="0.1"/>
    <path id="Path_25" data-name="Path 25" d="M897.342,564.113c-4.452-.033-8.3-.654-10.262-1.583h0l2.2-3.53Z" transform="translate(-606.044 -419.149)" opacity="0.1"/>
    <path id="Path_26" data-name="Path 26" d="M879.218,566.209c-.17-.036-.4.023-.429.193a.415.415,0,0,0,.065.245,3.491,3.491,0,0,0,1.564,1.338.932.932,0,0,0,.356.114.327.327,0,0,0,.327-.17.369.369,0,0,0-.023-.3,1.354,1.354,0,0,0-.406-.445C880.235,566.837,879.787,566.3,879.218,566.209Z" transform="translate(-600.465 -423.993)" opacity="0.1"/>
    <circle id="Ellipse_12" data-name="Ellipse 12" cx="8.45" cy="8.45" r="8.45" transform="translate(283.248 160.284)" fill="#6c63ff"/>
    <path id="Path_27" data-name="Path 27" d="M171.508,515.85h3.962a8.178,8.178,0,0,1,8.178,8.178v12.153H163.33V524.028A8.178,8.178,0,0,1,171.508,515.85Z" transform="translate(-109.899 -347.097)" fill="#3f3d56"/>
    <path id="Path_28" data-name="Path 28" d="M171.508,515.85h3.962a8.178,8.178,0,0,1,8.178,8.178v12.153H163.33V524.028A8.178,8.178,0,0,1,171.508,515.85Z" transform="translate(-109.899 -347.097)" opacity="0.1"/>
    <circle id="Ellipse_13" data-name="Ellipse 13" cx="1.626" cy="1.626" r="1.626" transform="translate(61.152 169.973)" fill="#3f3d56"/>
    <circle id="Ellipse_14" data-name="Ellipse 14" cx="1.626" cy="1.626" r="1.626" transform="translate(61.152 167.942)" fill="#3f3d56"/>
    <circle id="Ellipse_15" data-name="Ellipse 15" cx="1.626" cy="1.626" r="1.626" transform="translate(61.152 165.907)" fill="#3f3d56"/>
    <circle id="Ellipse_16" data-name="Ellipse 16" cx="1.626" cy="1.626" r="1.626" transform="translate(61.152 163.876)" fill="#3f3d56"/>
    <circle id="Ellipse_17" data-name="Ellipse 17" cx="1.626" cy="1.626" r="1.626" transform="translate(61.152 161.844)" fill="#3f3d56"/>
    <circle id="Ellipse_18" data-name="Ellipse 18" cx="1.626" cy="1.626" r="1.626" transform="translate(61.152 159.812)" fill="#3f3d56"/>
    <circle id="Ellipse_19" data-name="Ellipse 19" cx="1.626" cy="1.626" r="1.626" transform="translate(61.152 157.781)" fill="#3f3d56"/>
    <circle id="Ellipse_20" data-name="Ellipse 20" cx="1.626" cy="1.626" r="1.626" transform="translate(63.592 158.592)" fill="#3f3d56"/>
    <circle id="Ellipse_21" data-name="Ellipse 21" cx="1.626" cy="1.626" r="1.626" transform="translate(65.218 157.781)" fill="#3f3d56"/>
    <circle id="Ellipse_22" data-name="Ellipse 22" cx="1.626" cy="1.626" r="1.626" transform="translate(66.844 156.966)" fill="#3f3d56"/>
    <circle id="Ellipse_23" data-name="Ellipse 23" cx="1.626" cy="1.626" r="1.626" transform="translate(61.152 155.749)" fill="#3f3d56"/>
    <circle id="Ellipse_24" data-name="Ellipse 24" cx="1.626" cy="1.626" r="1.626" transform="translate(61.152 153.718)" fill="#3f3d56"/>
    <circle id="Ellipse_25" data-name="Ellipse 25" cx="1.626" cy="1.626" r="1.626" transform="translate(61.152 151.683)" fill="#3f3d56"/>
    <circle id="Ellipse_26" data-name="Ellipse 26" cx="1.626" cy="1.626" r="1.626" transform="translate(61.152 149.652)" fill="#3f3d56"/>
    <path id="Path_29" data-name="Path 29" d="M212.43,566.1c-.4.059-.808.1-1.214.128a9.333,9.333,0,0,0,1.05-1.08,6.943,6.943,0,0,0-.981-1.907,3.345,3.345,0,0,1-1.309.412c-.4.059-.808.1-1.214.131a20.263,20.263,0,0,0,1.554-1.636,6.9,6.9,0,1,0,2.162,3.926Z" transform="translate(-142.913 -420.067)" fill="#6c63ff"/>
    <path id="Path_30" data-name="Path 30" d="M243.793,600.962a3.168,3.168,0,0,1-1.367.455c-.4.059-.808.1-1.214.131a11.915,11.915,0,0,0,1.2-1.25,4.069,4.069,0,1,0,1.377.654Z" transform="translate(-168.843 -446.848)" fill="#6c63ff"/>
    <circle id="Ellipse_27" data-name="Ellipse 27" cx="1.626" cy="1.626" r="1.626" transform="translate(58.714 158.592)" fill="#3f3d56"/>
    <circle id="Ellipse_28" data-name="Ellipse 28" cx="1.626" cy="1.626" r="1.626" transform="translate(57.089 157.781)" fill="#3f3d56"/>
    <circle id="Ellipse_29" data-name="Ellipse 29" cx="1.626" cy="1.626" r="1.626" transform="translate(55.463 156.966)" fill="#3f3d56"/>
    <path id="Path_31" data-name="Path 31" d="M179.273,600.962a3.153,3.153,0,0,0,1.367.454c.4.059.808.1,1.214.131a11.585,11.585,0,0,1-1.2-1.25,4.069,4.069,0,1,1-1.377.654Z" transform="translate(-128.665 -446.848)" fill="#6c63ff"/>
    <path id="Path_32" data-name="Path 32" d="M171.508,519.58h3.962a8.178,8.178,0,0,1,8.178,8.178v10.753a1.387,1.387,0,0,1-1.387,1.387H164.717a1.387,1.387,0,0,1-1.387-1.387V527.758A8.178,8.178,0,0,1,171.508,519.58Z" transform="translate(-109.899 -349.607)" fill="#3f3d56"/>
    <g id="Group_4" data-name="Group 4" transform="translate(55.966 140.395)" opacity="0.1">
      <path id="Path_33" data-name="Path 33" d="M239.8,579.27a6.168,6.168,0,0,1-.523.5,5.31,5.31,0,0,0,.556-.049A2.923,2.923,0,0,0,239.8,579.27Z" transform="translate(-226.129 -573.183)"/>
      <path id="Path_34" data-name="Path 34" d="M231.82,570.544c.409-.026.811-.069,1.217-.127a3.925,3.925,0,0,0,1.057-.288,6.957,6.957,0,0,0-.569-.939,2.457,2.457,0,0,1-.654.278A9.4,9.4,0,0,1,231.82,570.544Z" transform="translate(-221.109 -566.401)"/>
      <path id="Path_35" data-name="Path 35" d="M199.8,568.3a6.9,6.9,0,0,1,10.632-5.81l.1-.111a6.9,6.9,0,1,0-9.1,10.38A6.871,6.871,0,0,1,199.8,568.3Z" transform="translate(-199.08 -560.665)"/>
    </g>
    <g id="Group_5" data-name="Group 5" transform="translate(68.47 153.312)" opacity="0.1">
      <path id="Path_36" data-name="Path 36" d="M249.22,603.977c.406-.026.811-.069,1.214-.128a3.172,3.172,0,0,0,1.367-.458,4.066,4.066,0,0,1,1.636,2.879,3.713,3.713,0,0,0,.023-.429,4.05,4.05,0,0,0-1.636-3.271,3.169,3.169,0,0,1-1.367.455l-.327.042A8.3,8.3,0,0,1,249.22,603.977Z" transform="translate(-245.321 -601.778)"/>
      <path id="Path_37" data-name="Path 37" d="M241.363,600.961a3.366,3.366,0,0,1,.406.029c.213-.226.422-.468.635-.7a4.057,4.057,0,0,0-5.1,3.926,2.789,2.789,0,0,0,.02.406A4.063,4.063,0,0,1,241.363,600.961Z" transform="translate(-237.3 -600.15)"/>
    </g>
    <g id="Group_6" data-name="Group 6" transform="translate(48.949 153.312)" opacity="0.1">
      <path id="Path_38" data-name="Path 38" d="M181.87,603.977c-.406-.026-.811-.069-1.214-.128a3.156,3.156,0,0,1-1.367-.458,4.066,4.066,0,0,0-1.636,2.879,3.713,3.713,0,0,1-.023-.429,4.05,4.05,0,0,1,1.636-3.271,3.157,3.157,0,0,0,1.367.455l.327.042A7.745,7.745,0,0,0,181.87,603.977Z" transform="translate(-177.63 -601.778)"/>
      <path id="Path_39" data-name="Path 39" d="M187.95,600.961a3.419,3.419,0,0,0-.409.029c-.209-.226-.419-.468-.631-.7a4.057,4.057,0,0,1,5.1,3.926,2.784,2.784,0,0,1-.02.406A4.063,4.063,0,0,0,187.95,600.961Z" transform="translate(-183.874 -600.15)"/>
    </g>
  </g>
</svg>
